<svg width="29" height="31" viewBox="0 0 29 31" fill="none" xmlns="http://www.w3.org/2000/svg">
<g clip-path="url(#clip0)">
<path d="M14.5 31.0034C22.5081 31.0034 29 24.0638 29 15.5034C29 6.943 22.5081 0.00341797 14.5 0.00341797C6.49187 0.00341797 0 6.943 0 15.5034C0 24.0638 6.49187 31.0034 14.5 31.0034Z" fill="black"/>
<path d="M20.1442 19.9837L20.7865 15.5022H16.7654V12.5944C16.7654 11.3694 17.3262 10.1728 19.1287 10.1728H20.9578V6.35825C20.9578 6.35825 19.298 6.05527 17.7116 6.05527C14.4001 6.05527 12.2345 8.20011 12.2345 12.0866V15.5022H8.55194V19.9837H12.2345V30.8147C12.9727 30.939 13.7292 31.0022 14.5 31.0022C15.2708 31.0022 16.0273 30.9368 16.7654 30.8147V19.9837H20.1442Z" fill="white"/>
</g>
<defs>
<clipPath id="clip0">
<rect width="29" height="31" fill="white"/>
</clipPath>
</defs>
</svg>
