<?xml version="1.0" encoding="UTF-8"?>
<svg width="81.768mm" height="16.908mm" version="1.1" viewBox="0 0 81.768 16.908" xmlns="http://www.w3.org/2000/svg">
  <g transform="translate(522.43 140.83)">
    <path d="m-521.98-124.39c-1.0936-1.2085-0.32844-2.6395 3.8925-7.2793 1.038-1.1411 2.2131-2.4369 2.6113-2.8797 0.87436-0.9723 1.505-0.69293 1.3176 0.5837-0.0934 0.63628-0.24748 0.79877-0.75748 0.79877-0.37002 0-1.0022 0.36294-1.4979 0.8599-1.7366 1.7411-4.681 5.2999-4.681 5.6577 0 0.20281-0.14433 0.59984-0.32072 0.88229-0.66734 1.0686 0.54628 0.91589 1.8465-0.23231 0.88698-0.78326 3.6298-3.1023 4.2757-3.6151 1.3722-1.0894 5.0333-4.9704 5.0572-5.3609 6e-3 -0.0968 0.35345-0.57663 0.7723-1.0663 0.64158-0.7501 0.82081-0.83501 1.1377-0.53899 0.32358 0.30227 0.30444 0.4267-0.13694 0.89036-1.1126 1.1687-2.8774 3.6082-2.7932 3.861 0.049 0.14704 0.49789-0.0342 0.9975-0.40285 0.83881-0.61885 2.4131-0.93119 2.3778-0.47175-8e-3 0.10914-0.27628 0.56526-0.59531 1.0136-1.4131 1.9859-2.5644 3.8117-2.5644 4.0669 0 0.45514 0.51112 0.31799 1.4317-0.38416 0.47697-0.36381 1.0352-0.66146 1.2406-0.66146s0.72991-0.43896 1.1656-0.97546c2.3613-2.9073 3.2756-3.6536 2.9498-2.4077-0.0907 0.34681 0.0123 0.76832 0.25253 1.0338 0.36727 0.40583 0.34128 0.55023-0.27461 1.5259-0.69436 1.0999-0.92367 1.8196-0.34112 1.0706 0.17728-0.22794 0.67951-0.59865 1.1161-0.82381s1.1509-0.60348 1.5875-0.84071c0.43656-0.23724 1.0432-0.43207 1.348-0.43297 0.30487-7.9e-4 0.76981-0.23975 1.0332-0.53079s0.71244-0.52917 0.99791-0.52917c0.52184 0 0.53283 0.24571 0.0621 1.3891-0.13502 0.32797-0.0666 0.46302 0.23456 0.46302 0.23385 0 0.42518-0.11906 0.42518-0.26458s0.1786-0.26458 0.39688-0.26458 0.39687-0.13891 0.39687-0.30868c0-0.16978 0.0759-0.23283 0.16858-0.14011 0.0927 0.0927 0.47966-0.0368 0.85989-0.28776 0.38023-0.25098 1.1486-0.68876 1.7076-0.97285 0.55895-0.28409 1.8589-1.4742 2.8888-2.6447 1.0299-1.1705 2.0157-2.1637 2.1907-2.2071 0.31546-0.0783 0.64056 0.7198 0.64751 1.5896 5e-3 0.57611-1.201 1.7399-2.2969 2.2172-0.81365 0.35436-1.1409 0.63691-2.8422 2.4538-0.85681 0.91502-0.59096 1.1488 0.33034 0.29042 0.31848-0.29671 0.57906-0.45149 0.57906-0.34396s0.14287 0.0526 0.3175-0.12198c0.54258-0.54258 1.2391-0.35101 1.6562 0.45551 0.3072 0.59405 0.32408 0.8036 0.0729 0.90515-0.17974 0.0727-0.20042 0.14154-0.046 0.15303 0.15446 0.0115 0.51521-0.18747 0.80167-0.44213 0.73373-0.65229 2.1-1.3891 2.5758-1.3891 0.22413 0 0.53619 0.4076 0.70602 0.92218 0.28367 0.85953 0.25361 0.9668-0.4425 1.5791-0.41077 0.36133-0.89568 0.66073-1.0776 0.66533-0.4193 0.0106-0.43128-0.84359-0.0177-1.2572 0.1722-0.1722 0.2446-0.38158 0.16089-0.46529-0.21118-0.2112-2.0615 0.589-2.0615 0.89153 0 0.13529-0.35719 0.39393-0.79375 0.57476s-0.79375 0.4334-0.79375 0.56127c0 0.30298-0.98391 0.30237-1.1712-7.9e-4 -0.0793-0.12827 0.15182-0.66934 0.51355-1.2024 0.36173-0.53303 0.65769-1.0172 0.65769-1.0759 0-0.30388-1.6271 0.53072-2.8726 1.4735-1.2776 0.96702-2.1544 1.1925-2.1544 0.55411 0-0.12978 0.2875-0.65962 0.63889-1.1774 0.35138-0.51779 0.57517-1.0052 0.49731-1.083-0.0779-0.0779-0.79505 0.27646-1.5938 0.78739-0.83787 0.53598-1.7085 0.89537-2.058 0.84956-0.43878-0.0575-0.89892 0.24839-1.6688 1.1093-0.79227 0.88603-1.1407 1.1132-1.3684 0.89226-0.22946-0.22271-0.0644-0.67333 0.66375-1.8115 0.91445-1.4295 0.93419-1.5047 0.34938-1.3304-0.34091 0.1016-1.0593 0.52984-1.5965 0.95165-0.53717 0.42182-1.0843 0.76693-1.2158 0.76693s-0.45459 0.23813-0.71798 0.52917c-0.48551 0.53648-1.7198 0.73723-1.7198 0.27971 0-0.1372 0.25363-0.70275 0.56362-1.2568 0.53411-0.95456 0.48413-0.92763-0.95418 0.51404-1.6069 1.6107-2.2169 1.8574-2.4442 0.98842-0.13792-0.52742-0.14399-0.5276-0.58622-0.0177-0.9933 1.1453-2.747 0.89983-2.1075-0.295 0.14049-0.2625 0.16195-0.4791 0.0477-0.48133-0.11426-2e-3 -0.0887-0.0915 0.0568-0.19843 0.14552-0.10691 0.47406-0.61111 0.73007-1.1204 0.25602-0.50932 0.71282-1.3358 1.0151-1.8366l0.54962-0.91055-1.2797 1.0357c-0.70383 0.56964-1.4348 1.2466-1.6244 1.5044-0.44349 0.60299-2.6635 2.6934-2.9828 2.8087-0.43379 0.15662-0.61575-0.81033-0.2105-1.1186 0.21147-0.16085 0.73663-0.76872 1.167-1.3508 0.53841-0.72816 0.61759-0.93525 0.25382-0.66379-1.2013 0.89645-3.1944 2.5776-4.1337 3.4867-0.55167 0.53396-1.2354 1.0446-1.5194 1.1347-0.28401 0.0901-0.66076 0.33787-0.83724 0.55051-0.41842 0.50417-0.61177 0.4877-1.1411-0.0972zm32.383-10.387c0.43247-0.80807 0.13379-0.90091-0.37926-0.11789-0.24135 0.36835-0.3212 0.66972-0.17744 0.66972 0.14375 0 0.39427-0.24833 0.5567-0.55183zm6.2497 7.2546c-0.097-0.097-0.17639-0.32422-0.17639-0.50491 0-0.35047 1.9703-2.8815 3.2993-4.2382 0.44097-0.45017 1.6947-1.8104 2.7861-3.0226 2.5788-2.8644 4.3049-4.2286 5.3503-4.2286 0.7875 0 0.80174 0.023 0.66153 1.0684-0.15558 1.1599-0.81783 2.3712-1.2964 2.3712-0.17327 0-0.11627-0.20245 0.13525-0.48038 0.57033-0.63021 0.88914-2.1654 0.44968-2.1654-0.63707 0-4.3625 3.4535-7.0201 6.5077-0.72761 0.83618-1.7099 1.9286-2.1828 2.4276-2.2141 2.336 0.21338 1.3946 4.3434-1.6845 1.2501-0.93197 2.3892-1.6945 2.5315-1.6945s0.63301-0.29945 1.0906-0.66545c1.11-0.88787 1.2138-0.96571 2.2872-1.7158 0.50932-0.35594 1.1212-0.88849 1.3596-1.1835 0.23848-0.29496 0.73823-0.86309 1.1105-1.2625 0.37232-0.39941 0.77251-0.87766 0.88931-1.0628 0.30099-0.47702 1.9248-1.7829 2.217-1.7829 0.13435 0 0.24428 0.25379 0.24428 0.56398 0 0.55602-1.1716 1.843-3.3437 3.6731-1.0986 0.92555-4.5938 4.8157-4.5938 5.1128 0 0.1895 0.86942-0.10699 1.0583-0.36092 0.12839-0.17256 3.8762-1.987 5.3703-2.5999 1.8277-0.74977 1.6487-0.11359-0.40932 1.455-2.1381 1.6296-3.1088 2.5339-3.1088 2.8958 0 0.15982-0.23813 0.50608-0.52917 0.76947s-0.52917 0.69856-0.52917 0.96705c0 0.26848-0.17859 0.48816-0.39687 0.48816-0.92915 0-0.13047-2.0509 1.4168-3.638 0.67694-0.69441 0.94353-1.1245 0.69703-1.1245-0.21954 0-0.60306 0.23812-0.85226 0.52916-0.24919 0.29105-0.60521 0.52917-0.79116 0.52917-0.18594 0-0.33807 0.0934-0.33807 0.20754s-0.38695 0.43488-0.8599 0.71276c-0.47294 0.27787-1.0172 0.66072-1.2095 0.85079-0.44846 0.44326-1.8997 0.45461-1.8981 0.0148 1e-3 -0.31287 0.37413-0.77002 2.6222-3.2139 0.89303-0.97081 0.71581-1.0902-0.31014-0.20896-0.25566 0.21961-0.69798 0.52892-0.98294 0.68736-0.28495 0.15844-1.6743 1.1215-3.0875 2.1402-3.4815 2.5095-5.4303 3.4399-6.0039 2.8663zm22.842-0.33555c0-0.53903 0.53203-1.5177 1.3039-2.3985 0.79915-0.91192 0.96862-1.3435 0.65195-1.6601-0.15075-0.15075-1.1345 0.28067-1.4267 0.6257-0.26981 0.31857-3.8136 2.3573-4.0976 2.3573-0.16198 0-0.41045-0.11593-0.55215-0.25763-0.16711-0.16711-0.52818-0.11726-1.0277 0.1419-1.0067 0.52226-1.4663 0.31638-1.4663-0.65676 0-1.1622 3.3316-4.5192 4.4851-4.5192 0.60558 0 0.80652 0.1208 0.80652 0.48488 0 0.60051-1.9482 2.209-2.4448 2.0184-0.21275-0.0816-0.71823 0.30252-1.2206 0.92763-0.4716 0.58684-0.78994 1.067-0.70743 1.067 0.3374 0 2.3647-1.421 3.9694-2.7823 0.94075-0.79807 1.7736-1.451 1.8507-1.451 0.48466 0-0.0271 1.0804-0.98423 2.0778l-1.1245 1.1718 1.1906-0.63261c0.65484-0.34794 1.2502-0.70586 1.3229-0.79539 0.0728-0.0895 0.41027-0.24958 0.75002-0.35568 0.4856-0.15163 0.58471-0.32449 0.46333-0.80809-0.22376-0.89154-0.25666-5.571-0.0416-5.919 0.47483-0.76827 0.64177-0.11346 0.49636 1.947-0.14606 2.0697-0.10948 2.3137 0.4759 3.1732 0.34877 0.51211 0.71738 0.93192 0.81914 0.93291 0.10175 1e-3 1.471-1.3305 3.0427-2.959 3.8532-3.9922 4.6211-4.7122 5.0261-4.7122 0.18984 0 0.34287 0.0893 0.34005 0.19844-3e-3 0.10914-1.4387 1.6715-3.1909 3.4719-2.054 2.1106-3.1331 3.4106-3.0376 3.6597 0.0815 0.21242 0.14821 0.49554 0.14821 0.62916 0 0.51585 2.4698 0.23286 4.0134-0.45984 1.1447-0.51372 1.6448-0.62401 1.8588-0.40997 0.21404 0.21405 0.53994 0.18958 1.2114-0.091 1.2693-0.53033 1.9355-0.48421 2.1002 0.14538 0.16762 0.64099 0.0136 0.64433 1.5463-0.0336 0.99895-0.44189 1.3749-0.49874 1.7498-0.26459 0.26264 0.16402 0.71727 0.29822 1.0103 0.29822 0.96511 0 0.55545 0.65747-0.68834 1.1047-1.1762 0.42297-1.226 0.42046-1.3538-0.0682-0.073-0.27904-0.17271-0.50734-0.22165-0.50734-0.33523 0-1.6536 0.7223-2.055 1.1259-0.38505 0.38715-0.5647 0.42307-0.86587 0.17313-0.21804-0.18096-0.31208-0.52942-0.22064-0.81754 0.1386-0.43669 0.0618-0.47901-0.58934-0.32467-0.41179 0.0976-1.3063 0.4851-1.9878 0.86108-1.211 0.66809-1.2514 0.67248-1.781 0.19322-0.42898-0.38822-0.62102-0.42469-0.92182-0.17505-0.20898 0.17344-1.1843 0.36192-2.1673 0.41885l-1.7873 0.10352-2.0107 1.9989c-1.856 1.8451-2.6605 2.3747-2.6605 1.7516zm-26.053-5.3864c-0.11326-0.26093-0.13168-0.54867-0.0409-0.63941 0.26868-0.26868 0.48526 0.10873 0.3616 0.63012-0.10963 0.46221-0.12389 0.46262-0.32066 9e-3zm43.317-5.1382c-0.98274-0.18613-0.74674-0.91782 0.26459-0.82031 0.52646 0.0508 0.85989 0.22825 0.85989 0.45773 0 0.43079-0.28282 0.52198-1.1245 0.36258z" style="stroke-width:.26458"/>
  </g>
</svg>
