<svg width="31" height="25" viewBox="0 0 31 25" fill="none" xmlns="http://www.w3.org/2000/svg">
<path d="M31 2.95936C29.8595 3.46141 28.6336 3.80057 27.3473 3.95315C28.6603 3.17208 29.6689 1.93528 30.1436 0.461442C28.9146 1.18482 27.5536 1.70994 26.1048 1.99295C24.9448 0.766296 23.2918 0 21.4625 0C17.9502 0 15.1024 2.8257 15.1024 6.3111C15.1024 6.80576 15.1587 7.28751 15.2672 7.74941C9.98135 7.48624 5.29507 4.97354 2.15817 1.15513C1.61071 2.08724 1.29699 3.17132 1.29699 4.32799C1.29699 6.51767 2.41981 8.44941 4.12636 9.58116C3.08383 9.5484 2.10315 9.26447 1.24568 8.7918C1.24496 8.8181 1.24496 8.84455 1.24496 8.87117C1.24496 11.929 3.43729 14.4796 6.3468 15.0598C5.81313 15.2041 5.25125 15.2812 4.67124 15.2812C4.26142 15.2812 3.86308 15.2415 3.47464 15.168C4.28406 17.6753 6.63277 19.5 9.41596 19.5507C7.23929 21.2436 4.49702 22.2526 1.51714 22.2526C1.00378 22.2526 0.497552 22.2226 0 22.1643C2.81465 23.9552 6.1577 25 9.74936 25C21.4477 25 27.845 15.3831 27.845 7.04279C27.845 6.76916 27.8388 6.49706 27.8266 6.2262C29.0691 5.33654 30.1472 4.22509 30.9999 2.95936H31Z" fill="black"/>
</svg>
