<svg width="45" height="28" viewBox="0 0 45 28" fill="none" xmlns="http://www.w3.org/2000/svg">
<path fill-rule="evenodd" clip-rule="evenodd" d="M45 0.470555C45 0.63 44.9486 0.773889 44.8496 0.906111C44.7467 1.03444 44.6398 1.10056 44.5172 1.10056C43.5317 1.19389 42.7203 1.505 42.095 2.03778C41.4657 2.56667 40.8206 3.58167 40.1517 5.075L29.9406 27.685C29.8734 27.895 29.6873 28 29.3786 28C29.1372 28 28.9512 27.895 28.8166 27.685L23.0897 15.9172L16.504 27.685C16.3694 27.895 16.1834 28 15.942 28C15.6491 28 15.4551 27.895 15.3602 27.685L5.32718 5.075C4.70185 3.67111 4.0409 2.69111 3.34433 2.135C2.65172 1.57889 1.68206 1.23278 0.443272 1.10056C0.336412 1.10056 0.233509 1.04611 0.14248 0.933333C0.0474935 0.824444 0 0.696111 0 0.552222C0 0.182778 0.10686 0 0.32058 0C1.21504 0 2.14908 0.0388886 3.12665 0.116666C4.03298 0.198333 4.88786 0.237222 5.68734 0.237222C6.50264 0.237222 7.46438 0.198333 8.57256 0.116666C9.73219 0.0388886 10.7612 0 11.6557 0C11.8694 0 11.9763 0.182778 11.9763 0.552222C11.9763 0.917778 11.909 1.10056 11.7784 1.10056C10.8839 1.16667 10.1794 1.39222 9.66491 1.76944C9.1504 2.15056 8.89314 2.64833 8.89314 3.26667C8.89314 3.58167 9 3.97444 9.21372 4.445L17.5053 22.8433L22.2111 14.1089L17.8259 5.075C17.0383 3.465 16.3892 2.42278 15.8826 1.95611C15.376 1.49333 14.6082 1.20556 13.5792 1.10056C13.4842 1.10056 13.3971 1.04611 13.31 0.933333C13.223 0.824444 13.1794 0.696111 13.1794 0.552222C13.1794 0.182778 13.2704 0 13.4604 0C14.3549 0 15.1741 0.0388886 15.9222 0.116666C16.6425 0.198333 17.4103 0.237222 18.2256 0.237222C19.0251 0.237222 19.872 0.198333 20.7665 0.116666C21.6887 0.0388886 22.595 0 23.4894 0C23.7032 0 23.81 0.182778 23.81 0.552222C23.81 0.917778 23.7467 1.10056 23.6121 1.10056C21.8232 1.22111 20.9288 1.71889 20.9288 2.59778C20.9288 2.99056 21.1346 3.60111 21.5501 4.42556L24.4512 10.2122L27.3364 4.91945C27.7361 4.17278 27.938 3.54278 27.938 3.02944C27.938 1.82389 27.0435 1.18222 25.2546 1.10056C25.0923 1.10056 25.0132 0.917778 25.0132 0.552222C25.0132 0.42 25.0528 0.295555 25.1319 0.178889C25.215 0.058333 25.2942 0 25.3734 0C26.0145 0 26.8021 0.0388886 27.7362 0.116666C28.6306 0.198333 29.3668 0.237222 29.9406 0.237222C30.3522 0.237222 30.9617 0.202222 31.7612 0.136111C32.7744 0.0466668 33.6253 0 34.3061 0C34.4644 0 34.5435 0.155555 34.5435 0.470555C34.5435 0.890555 34.3971 1.10056 34.1042 1.10056C33.0633 1.20556 32.2243 1.48944 31.591 1.94833C30.9578 2.40722 30.1662 3.44944 29.2203 5.075L25.3734 12.0633L30.5818 22.4894L38.2718 4.91945C38.5369 4.27778 38.6715 3.68667 38.6715 3.15C38.6715 1.86278 37.777 1.18222 35.9881 1.10056C35.8259 1.10056 35.7467 0.917778 35.7467 0.552222C35.7467 0.182778 35.8654 0 36.1069 0C36.7599 0 37.5356 0.0388886 38.4301 0.116666C39.2573 0.198333 39.9538 0.237222 40.5119 0.237222C41.1016 0.237222 41.7823 0.198333 42.5541 0.116666C43.3575 0.0388886 44.0778 0 44.719 0C44.905 0 45 0.155555 45 0.470555Z" fill="black"/>
</svg>
